<svg width="25" height="36" viewBox="0 0 25 36" fill="none" xmlns="http://www.w3.org/2000/svg">
<path d="M16.53 4.66632C16.53 6.69868 14.8827 8.34627 12.8503 8.34627C10.8179 8.34627 9.17053 6.69868 9.17053 4.66632C9.17053 2.63423 10.8179 0.986572 12.8503 0.986572C14.8827 0.986572 16.53 2.63416 16.53 4.66632Z" fill="#3F90EF"/>
<path d="M24.8369 13.7384C24.5454 12.8639 23.6346 12.3904 22.7601 12.682C21.1936 13.192 19.4445 13.2284 19.1167 12.9371C18.9711 12.7915 18.8252 12.5363 18.643 12.2448C18.0236 11.2247 16.9669 9.54865 14.5625 9.54865H11.1742C8.76954 9.54865 7.71309 11.2247 7.09371 12.2448C6.91149 12.5363 6.72927 12.7912 6.62 12.9371C6.29215 13.2286 4.54314 13.1923 2.97661 12.682C2.10213 12.3905 1.19129 12.9005 0.899752 13.7384C0.608249 14.6129 1.11832 15.5237 1.9562 15.8153C2.42992 15.9609 3.9235 16.3983 5.52666 16.3983C6.80197 16.3983 8.11359 16.1068 8.98781 15.196C9.13343 15.0503 9.24297 14.9045 9.35225 14.7588L9.17003 18.8759C4.28796 22.0456 4.25133 22.9201 4.25133 23.8309C4.25133 24.8874 4.25133 25.9441 10.8823 28.9682C11.1738 29.0774 11.4287 29.1504 11.7202 29.1504C11.9388 29.1504 12.121 29.114 12.3032 29.0774L12.1939 33.5587C12.1576 34.6881 13.0684 35.6356 14.1978 35.6719H14.2342C15.3636 35.6719 16.2744 34.7974 16.2744 33.668L16.6023 20.0053V19.8597L16.3471 14.8683C16.4564 15.0139 16.5293 15.1235 16.6749 15.2691C18.6422 17.3822 22.8686 16.1799 23.7067 15.8884C24.6183 15.5237 25.0921 14.613 24.8369 13.7384ZM9.46186 23.612C10.2998 22.9927 11.4292 22.264 12.4859 21.5718L12.4129 25.0695C11.3562 24.6322 10.2998 24.0854 9.46186 23.612Z" fill="#3F90EF"/>
</svg>
