<svg width="34" height="27" viewBox="0 0 34 27" fill="none" xmlns="http://www.w3.org/2000/svg">
<path d="M0.87207 18.4511V9.90739C0.87207 8.83306 1.29878 7.80268 2.05859 7.0429C2.81812 6.28311 3.84875 5.85638 4.92308 5.85638H6.85558V13.9439C6.85733 15.4708 7.46477 16.9346 8.54459 18.0145C9.62419 19.0943 11.0883 19.7015 12.6152 19.7033H24.0807C23.8164 20.5168 23.3014 21.2256 22.6096 21.7284C21.9178 22.2312 21.0845 22.5023 20.229 22.5025H8.16329L2.91374 26.6926C2.80078 26.7827 2.6429 26.7912 2.52091 26.7137C2.39867 26.6364 2.33918 26.4898 2.37281 26.3492L3.36354 22.1905C2.6256 21.8825 1.9953 21.3634 1.55205 20.698C1.10852 20.0326 0.87207 19.2509 0.87207 18.4512V18.4511ZM33.2581 13.9436V13.9438C33.2581 14.7965 33.0056 15.6301 32.5329 16.3394C32.06 17.049 31.3878 17.6027 30.6009 17.9311L31.6577 22.3659L31.6574 22.3662C31.6933 22.516 31.6298 22.6721 31.4998 22.755C31.3695 22.8375 31.2011 22.8285 31.0806 22.7321L25.4824 18.2639H12.6154C11.4695 18.2639 10.3706 17.8086 9.56062 16.9986C8.75039 16.1884 8.29531 15.0895 8.29531 13.9439V4.83276C8.29531 3.68691 8.75039 2.58823 9.56062 1.778C10.3706 0.96777 11.4695 0.512695 12.6154 0.512695H28.9382C30.0838 0.512695 31.1827 0.96777 31.9929 1.778C32.8029 2.58823 33.2582 3.68691 33.2582 4.83276L33.2581 13.9436ZM27.3037 12.2626C27.3037 11.9684 27.1867 11.6863 26.9786 11.4782C26.7705 11.2701 26.4884 11.1531 26.1942 11.1531H15.359C14.9627 11.1531 14.5965 11.3647 14.3982 11.7078C14.2002 12.0512 14.2002 12.4742 14.3982 12.8173C14.5965 13.1607 14.9627 13.372 15.359 13.372H26.1942C26.4884 13.372 26.7705 13.2551 26.9786 13.047C27.1867 12.8392 27.3037 12.5567 27.3037 12.2626ZM27.3037 6.51348C27.3037 6.2193 27.1867 5.93716 26.9786 5.72908C26.7705 5.52099 26.4884 5.40428 26.1942 5.40402H15.359C14.9627 5.40402 14.5965 5.61563 14.3982 5.95875C14.2002 6.30213 14.2002 6.72509 14.3982 7.06823C14.5965 7.41161 14.9627 7.62295 15.359 7.62295H26.1942C26.4884 7.62295 26.7705 7.50624 26.9786 7.29815C27.1867 7.09006 27.3037 6.80791 27.3037 6.51348Z" fill="#D45018"/>
</svg>
