<svg width="32" height="21" viewBox="0 0 32 21" fill="none" xmlns="http://www.w3.org/2000/svg">
<path fill-rule="evenodd" clip-rule="evenodd" d="M31.6025 11.0798C31.6025 11.0798 26.6187 20.5264 15.8613 20.5264C5.1039 20.5264 0.12016 11.0798 0.12016 11.0798C0.0035664 10.8597 0.0035664 10.5957 0.12016 10.3757C0.12016 10.3757 5.1039 0.929077 15.8613 0.929077C26.6187 0.929077 31.6025 10.3757 31.6025 10.3757C31.7191 10.5958 31.7191 10.8597 31.6025 11.0798ZM15.8613 3.94409C12.1175 3.94409 9.07773 6.98385 9.07773 10.7277C9.07773 14.4715 12.1175 17.5113 15.8613 17.5113C19.6052 17.5113 22.6449 14.4715 22.6449 10.7277C22.6449 6.98385 19.6052 3.94409 15.8613 3.94409ZM15.8613 5.45147C18.7728 5.45147 21.1375 7.81616 21.1375 10.7277C21.1375 13.6392 18.7728 16.0039 15.8613 16.0039C12.9498 16.0039 10.5851 13.6392 10.5851 10.7277C10.5851 7.81616 12.9498 5.45147 15.8613 5.45147ZM15.8613 8.46649C17.1095 8.46649 18.1225 9.4795 18.1225 10.7277C18.1225 11.1438 18.4602 11.4815 18.8763 11.4815C19.2922 11.4815 19.6299 11.1438 19.6299 10.7277C19.6299 8.64745 17.9416 6.95911 15.8613 6.95911C15.4452 6.95911 15.1075 7.29677 15.1075 7.71267C15.1075 8.12882 15.4452 8.46649 15.8613 8.46649Z" fill="#FFBB0C"/>
</svg>
