<svg width="36" height="32" viewBox="0 0 36 32" fill="none" xmlns="http://www.w3.org/2000/svg">
<path d="M1.31773 17.6573H3.24477C3.70518 17.6573 4.07813 18.1177 4.07813 18.4906V29.2419C4.07813 29.7023 3.70476 30.0753 3.24477 30.0753H1.31773C0.85732 30.0753 0.484375 29.6149 0.484375 29.2419V18.4906C0.484375 18.0302 0.857746 17.6573 1.31773 17.6573Z" fill="#8E55E8"/>
<path d="M30.9252 23.3998L23.3935 26.3284H23.3324L23.1797 26.3817H23.0956L23.0952 26.3821C22.8481 26.4619 22.5904 26.5059 22.3305 26.5123H13.3458C12.9234 26.5123 12.5812 26.1696 12.5812 25.7476C12.5812 25.3252 12.9234 24.983 13.3458 24.983H22.2998C22.4462 24.9817 22.5909 24.9557 22.7283 24.9062H22.8046C23.2416 24.7065 23.5224 24.2704 23.5236 23.7899C23.5236 23.466 23.3943 23.1558 23.1648 22.9275C22.9352 22.6992 22.6237 22.5721 22.2998 22.5742H17.3603C17.1444 22.5738 16.9391 22.482 16.7945 22.3216C15.3484 20.7667 13.3206 19.883 11.1974 19.8825H5.61518V27.7126L15.487 31.2299C17.4473 31.9199 19.6013 31.8017 21.4741 30.9014L35.238 24.2567V24.2563C34.6751 23.7178 33.9706 23.3513 33.2064 23.1994C32.4426 23.0479 31.6511 23.1174 30.9252 23.3998Z" fill="#8E55E8"/>
<path d="M19.3177 3.7176C20.0094 3.44579 20.7459 3.30583 21.4892 3.30455C23.0454 3.30669 24.5372 3.92626 25.6369 5.02754C26.7364 6.12843 27.3544 7.62104 27.3544 9.17722C27.3544 12.037 24.6704 15.2484 22.6214 17.2825L23.5465 18.1158H23.5461C23.6856 18.2391 23.8652 18.307 24.0508 18.307C24.233 18.3074 24.4093 18.2421 24.548 18.1235C24.8842 17.8406 32.8981 10.9894 32.8981 6.24074V6.24117C32.896 4.70629 32.2854 3.23542 31.2002 2.15037C30.1151 1.06532 28.6439 0.454692 27.1094 0.452507C26.0282 0.449094 24.9679 0.751204 24.0508 1.32427C23.1343 0.749926 22.0739 0.447821 20.9922 0.452507C18.9606 0.511392 17.11 1.63576 16.1213 3.41173C16.4567 3.34729 16.7968 3.31401 17.1382 3.3123C17.8841 3.30633 18.624 3.44366 19.3177 3.7176Z" fill="#8E55E8"/>
<path d="M18.8207 17.7949C18.962 17.9076 19.1369 17.9699 19.3178 17.9707C19.4962 17.9711 19.6694 17.9088 19.8073 17.7949C20.4268 17.2675 25.8251 12.5874 25.8251 9.16949C25.823 8.02032 25.3655 6.91867 24.5527 6.10616C23.7403 5.29329 22.6386 4.83585 21.4894 4.83378C20.7269 4.83164 19.9771 5.03219 19.3179 5.41495C18.4333 4.90461 17.3973 4.72197 16.3915 4.89906C15.3858 5.07657 14.4748 5.60269 13.8185 6.38489C13.1622 7.16748 12.8025 8.15616 12.8029 9.1772C12.8029 12.5875 18.2011 17.2671 18.8207 17.7949Z" fill="#8E55E8"/>
</svg>
