<svg width="15" height="14" viewBox="0 0 15 14" fill="none" xmlns="http://www.w3.org/2000/svg">
<path d="M8.47998 3.9928C8.47998 6.09184 6.77837 7.79346 4.67932 7.79346C2.58027 7.79346 0.878662 6.09184 0.878662 3.9928C0.878662 1.89375 2.58027 0.192139 4.67932 0.192139C6.77837 0.192139 8.47998 1.89375 8.47998 3.9928Z" fill="#012641"/>
<path d="M14.9708 7.7935C14.9708 9.05126 13.9512 10.0709 12.6934 10.0709C11.4356 10.0709 10.416 9.05126 10.416 7.7935C10.416 6.53573 11.4356 5.51611 12.6934 5.51611C13.9512 5.51611 14.9708 6.53573 14.9708 7.7935Z" fill="#012641"/>
<path d="M8.03267 11.9368C8.03267 12.9673 7.19726 13.8027 6.16672 13.8027C5.13619 13.8027 4.30078 12.9673 4.30078 11.9368C4.30078 10.9063 5.13619 10.0709 6.16672 10.0709C7.19726 10.0709 8.03267 10.9063 8.03267 11.9368Z" fill="#012641"/>
</svg>
