<svg width="23" height="24" viewBox="0 0 23 24" fill="none" xmlns="http://www.w3.org/2000/svg">
<path d="M1.04077 11.7595L1.04072 11.7567C0.996344 8.82817 2.1158 6.00197 4.15302 3.89788C6.18983 1.79431 8.97763 0.584341 11.9051 0.533365C14.8322 0.58426 17.6191 1.7946 19.6544 3.89825C21.6904 6.00272 22.8075 8.8289 22.7609 11.7566L22.7608 11.7566L22.7609 11.7596C22.8028 14.6841 21.6834 17.5061 19.6482 19.6066C17.6134 21.7067 14.8291 22.9144 11.9051 22.9653C8.98082 22.9143 6.19531 21.7067 4.15929 19.607L4.0875 19.6766L4.15928 19.607C2.12247 17.5069 1.00108 14.6849 1.04077 11.7595ZM21.104 11.0412L21.2119 11.0409L21.2034 10.9333C21.0571 9.08848 20.3846 7.32407 19.2658 5.84981C18.1471 4.37557 16.6292 3.25278 14.8917 2.6151L14.5856 2.50274L14.7761 2.7674C16.0247 4.50181 16.8417 7.4503 16.9555 10.9548L16.9586 11.0518L17.0557 11.0515L21.104 11.0412ZM8.75995 12.5367H8.65598L8.66002 12.6406C8.75252 15.0179 9.20903 17.0773 9.83078 18.5457C10.1415 19.2796 10.4953 19.8702 10.8692 20.2791C11.2417 20.6865 11.6454 20.9251 12.0545 20.9251C12.4636 20.9251 12.8662 20.687 13.2374 20.2802C13.6099 19.872 13.9621 19.2821 14.2717 18.5489C14.8912 17.0816 15.3477 15.0224 15.4491 12.641L15.4535 12.5367H15.3492H8.75995ZM8.66002 10.8759L8.6562 10.9793L8.75968 10.9796L15.3488 10.9973L15.4527 10.9976L15.449 10.8938C15.3651 8.51626 14.9086 6.44147 14.2848 4.95775C13.973 4.21627 13.6177 3.61805 13.2426 3.20344C12.869 2.79051 12.4642 2.54743 12.0545 2.54743C11.6452 2.54743 11.241 2.7873 10.8679 3.19671C10.4934 3.60764 10.1388 4.20125 9.82753 4.93893C9.20473 6.41503 8.74822 8.48542 8.66002 10.8759ZM9.4371 2.56721L9.62513 2.31814L9.32736 2.41154C7.49322 2.98686 5.87365 4.12374 4.67641 5.62635C3.47865 7.12919 2.75813 8.95589 2.60713 10.8718L2.59863 10.9796H2.70682H7.03768H7.13457L7.13763 10.8828C7.25186 7.26506 8.12797 4.30136 9.4371 2.56721ZM2.70692 12.537H2.59854L2.60724 12.6451C2.76136 14.5578 3.48398 16.3808 4.68131 17.8802C5.87865 19.3795 7.49683 20.4873 9.32789 21.0612L9.629 21.1555L9.4372 20.9049C8.13716 19.2065 7.26094 16.2342 7.13813 12.6336L7.13483 12.537H7.03819H2.70692ZM14.7759 20.7849L14.5878 21.0479L14.8915 20.937C16.6179 20.3062 18.1278 19.1778 19.2439 17.719C20.3608 16.2594 21.0373 14.5116 21.1946 12.681L21.204 12.5724H21.095H17.0713H16.9747L16.9713 12.6689C16.8485 16.1639 16.0164 19.0498 14.7759 20.7849Z" fill="#4580FF" stroke="white" stroke-width="0.2"/>
</svg>
