<svg width="20" height="26" viewBox="0 0 20 26" fill="none" xmlns="http://www.w3.org/2000/svg">
<path d="M9.62549 13.0385C7.62221 13.0385 5.99265 11.4088 5.99265 9.40552C5.99265 7.40224 7.62238 5.77268 9.62549 5.77268C11.6288 5.77268 13.2585 7.40241 13.2585 9.40552C13.2587 11.4085 11.6288 13.0385 9.62549 13.0385ZM9.62549 7.44576C8.54522 7.44576 7.66636 8.32462 7.66636 9.4049C7.66636 10.4855 8.54522 11.3644 9.62549 11.3644C10.7061 11.3644 11.585 10.4855 11.585 9.4049C11.585 8.3248 10.7061 7.44576 9.62549 7.44576Z" fill="#4580FF"/>
<path d="M9.62536 25.4143C9.14207 25.4143 8.68343 25.211 8.29925 24.8262L8.23796 24.7579L8.11696 24.6074C5.15058 20.9294 0.173828 14.1651 0.173828 10.1871C0.173828 4.97532 4.41396 0.735901 9.62544 0.735901C14.8372 0.735901 19.0775 4.97568 19.0775 10.1871C19.0775 15.2137 11.3276 24.3887 10.9976 24.7769L10.9521 24.8263C10.5677 25.2112 10.1088 25.4143 9.62536 25.4143ZM9.50997 23.6688C9.56776 23.7212 9.60961 23.7408 9.62536 23.7408C9.64498 23.7408 9.69033 23.7163 9.74759 23.663C11.7629 21.2854 17.4034 13.8201 17.4034 10.1872C17.4034 5.89856 13.9143 2.40948 9.62521 2.40948C5.33657 2.40948 1.84705 5.89856 1.84705 10.1872C1.84705 12.7173 4.60713 17.5906 9.419 23.5568L9.50997 23.6688Z" fill="#4580FF"/>
</svg>
