<svg width="213" height="44" viewBox="0 0 213 44" fill="none" xmlns="http://www.w3.org/2000/svg">
<path d="M82.3511 38.1684C79.3004 40.8607 75.5536 42.6133 71.5523 43.2196C67.5511 43.8259 63.4622 43.2605 59.7676 41.5902C56.0729 39.9199 52.9266 37.2143 50.6993 33.7922C48.4721 30.3701 47.2568 26.3742 47.1967 22.2755C47.1366 18.1768 48.2342 14.146 50.3601 10.6584C52.486 7.17077 55.5516 4.37161 59.1956 2.59082C62.8397 0.810038 66.9102 0.121866 70.9274 0.607415C74.9447 1.09296 78.7412 2.732 81.8695 5.33133L73.3132 15.9029C72.1742 14.9564 70.7918 14.3596 69.3291 14.1828C67.8664 14.0061 66.3843 14.2566 65.0575 14.905C63.7307 15.5534 62.6145 16.5726 61.8404 17.8425C61.0663 19.1124 60.6667 20.58 60.6886 22.0724C60.7105 23.5647 61.153 25.0197 61.9639 26.2657C62.7749 27.5117 63.9205 28.4969 65.2657 29.105C66.611 29.7132 68.0998 29.919 69.5567 29.6983C71.0135 29.4775 72.3778 28.8394 73.4886 27.8591L82.3511 38.1684Z" fill="#012641"/>
<path d="M0 2.21832H13.2188V41.6937H0V2.21832Z" fill="#012641"/>
<path d="M25.394 2.21832H38.6127V41.6937H25.394V2.21832Z" fill="#012641"/>
<path d="M0 28.3001L0.0617312 14.9068L38.636 15.0894L38.5743 28.4827L0 28.3001Z" fill="#012641"/>
<rect width="13.3439" height="38.9503" transform="matrix(0.00460906 -0.999989 0.999989 0.00473167 25.3936 28.4165)" fill="#4580FF"/>
<rect x="38.6128" y="2.21832" width="13.2188" height="39.4754" fill="#4580FF"/>
<path d="M102.755 1.68965V19.1364H100.511V10.3337H93.3886V19.1364H91.1449V1.68965H93.3886V8.21895H100.511V1.68965H102.755Z" fill="#00203F"/>
<path d="M117.227 17.0216V19.1364H107.757V1.68965H117.227V3.8044H110V8.21895H115.453V10.3337H110V17.0216H117.227Z" fill="#00203F"/>
<path d="M127.317 1.63678L132.979 19.1364H130.683L129.535 15.5677H122.595L121.473 19.1364H119.177L124.813 1.63678H127.317ZM123.247 13.453H128.883L126.065 4.54457L123.247 13.453Z" fill="#00203F"/>
<path d="M145.559 17.0216V19.1364H136.088V1.68965H138.332V17.0216H145.559Z" fill="#00203F"/>
<path d="M152.063 3.8044V19.1364H149.819V3.8044H144.601V1.68965H157.281V3.8044H152.063Z" fill="#00203F"/>
<path d="M171.877 1.68965V19.1364H169.633V10.3337H162.511V19.1364H160.267V1.68965H162.511V8.21895H169.633V1.68965H171.877Z" fill="#00203F"/>
<path d="M102.715 38.6538V41.2972C101.619 41.8083 100.245 42.0638 98.5929 42.0638C96.0535 42.0638 94.062 41.4206 92.6184 40.1341C90.8269 38.5304 89.9312 36.1337 89.9312 32.944C89.9312 29.7895 90.8182 27.4192 92.5923 25.8331C94.0881 24.529 96.0796 23.877 98.5668 23.877C100.132 23.877 101.515 24.0972 102.715 24.5378V27.1813C101.463 26.7407 100.141 26.5204 98.7495 26.5204C96.958 26.5204 95.5752 26.9698 94.6012 27.8686C93.3663 29.014 92.7488 30.7235 92.7488 32.9968C92.7488 35.2349 93.375 36.9356 94.6273 38.0987C95.5839 39.0151 96.9058 39.4733 98.5929 39.4733C100.263 39.4733 101.637 39.2001 102.715 38.6538Z" fill="#00203F"/>
<path d="M104.631 32.9704C104.631 31.4196 104.901 30.0274 105.44 28.7938C105.979 27.5601 106.71 26.5997 107.632 25.9124C109.406 24.5554 111.302 23.877 113.319 23.877C114.276 23.877 115.233 24.0444 116.189 24.3792C117.163 24.714 118.094 25.2251 118.981 25.9124C119.885 26.5821 120.616 27.5337 121.172 28.7673C121.729 29.9833 122.007 31.3843 122.007 32.9704C122.007 35.5257 121.329 37.5612 119.972 39.0767C119.085 40.0636 118.042 40.8126 116.841 41.3237C115.659 41.8171 114.485 42.0638 113.319 42.0638C111.667 42.0638 110.128 41.6409 108.701 40.795C107.484 40.0901 106.501 39.0767 105.753 37.755C105.005 36.4333 104.631 34.8384 104.631 32.9704ZM107.449 32.9704C107.449 34.7679 107.98 36.2835 109.041 37.5171C110.102 38.7507 111.528 39.3675 113.319 39.3675C115.093 39.3675 116.511 38.7507 117.572 37.5171C118.65 36.2659 119.19 34.7503 119.19 32.9704C119.19 31.2081 118.65 29.7013 117.572 28.4501C116.494 27.1989 115.076 26.5733 113.319 26.5733C111.545 26.5733 110.119 27.1989 109.041 28.4501C107.98 29.6837 107.449 31.1905 107.449 32.9704Z" fill="#00203F"/>
<path d="M138.804 24.247V41.6938H135.569L128.238 28.4237V41.6938H125.498V24.247H129.073L136.065 36.9091V24.247H138.804Z" fill="#00203F"/>
<path d="M156.69 24.247V41.6938H153.455L146.123 28.4237V41.6938H143.384V24.247H146.958L153.95 36.9091V24.247H156.69Z" fill="#00203F"/>
<path d="M170.871 39.0503V41.6938H161.27V24.247H170.871V26.8905H164.035V30.7763H169.097V33.4198H164.035V39.0503H170.871Z" fill="#00203F"/>
<path d="M185.8 38.6538V41.2972C184.704 41.8083 183.33 42.0638 181.677 42.0638C179.138 42.0638 177.146 41.4206 175.703 40.1341C173.911 38.5304 173.016 36.1337 173.016 32.944C173.016 29.7895 173.903 27.4192 175.677 25.8331C177.173 24.529 179.164 23.877 181.651 23.877C183.217 23.877 184.599 24.0972 185.8 24.5378V27.1813C184.547 26.7407 183.225 26.5204 181.834 26.5204C180.042 26.5204 178.66 26.9698 177.686 27.8686C176.451 29.014 175.833 30.7235 175.833 32.9968C175.833 35.2349 176.459 36.9356 177.712 38.0987C178.668 39.0151 179.99 39.4733 181.677 39.4733C183.347 39.4733 184.721 39.2001 185.8 38.6538Z" fill="#00203F"/>
<path d="M195.167 26.8905V41.6938H192.402V26.8905H187.392V24.247H200.202V26.8905H195.167Z" fill="#00203F"/>
<path d="M202.512 24.2392H213V26.8978H202.512V24.2392Z" fill="#4580FF"/>
<path d="M206.444 30.8818L206.444 20.2552L209.068 20.2552L209.068 30.8818H206.444Z" fill="#4580FF"/>
</svg>
