<svg width="24" height="24" viewBox="0 0 24 24" fill="none" xmlns="http://www.w3.org/2000/svg">
<path d="M5.0054 12.0163C5.0054 12.3569 5.0299 12.7 5.07401 13.0382C5.06176 12.9524 5.04951 12.8642 5.0397 12.7784C5.13038 13.4352 5.30437 14.0772 5.55925 14.6875C5.52739 14.6091 5.49308 14.5306 5.46122 14.4522C5.71854 15.0575 6.05184 15.6285 6.45371 16.1505C6.40225 16.0843 6.35078 16.0182 6.29932 15.952C6.69387 16.4592 7.14971 16.9151 7.65944 17.3121C7.59327 17.2606 7.52711 17.2092 7.46094 17.1577C7.9829 17.5596 8.55147 17.8929 9.1592 18.1502C9.08078 18.1183 9.00236 18.084 8.92394 18.0522C9.53661 18.307 10.1762 18.481 10.833 18.5717C10.7472 18.5595 10.659 18.5472 10.5732 18.5374C11.252 18.6281 11.9382 18.6281 12.617 18.5374C12.5313 18.5497 12.4431 18.5619 12.3573 18.5717C13.014 18.481 13.6561 18.3071 14.2663 18.0522C14.1879 18.084 14.1095 18.1183 14.0311 18.1502C14.6364 17.8929 15.2074 17.5596 15.7293 17.1577C15.6632 17.2092 15.597 17.2606 15.5308 17.3121C16.0381 16.9175 16.4939 16.4617 16.891 15.952C16.8395 16.0182 16.788 16.0843 16.7366 16.1505C17.1385 15.6285 17.4718 15.0599 17.7291 14.4522C17.6972 14.5306 17.6629 14.6091 17.631 14.6875C17.8859 14.0748 18.0599 13.4352 18.1506 12.7784C18.1383 12.8642 18.1261 12.9524 18.1163 13.0382C18.2069 12.3594 18.2069 11.6732 18.1163 10.9944C18.1285 11.0801 18.1408 11.1684 18.1506 11.2541C18.0599 10.5974 17.8859 9.95533 17.631 9.34508C17.6629 9.4235 17.6972 9.50192 17.7291 9.58034C17.4717 8.97503 17.1384 8.40404 16.7366 7.88207C16.788 7.94824 16.8395 8.01441 16.891 8.08058C16.4964 7.57331 16.0406 7.11749 15.5308 6.72046C15.597 6.77192 15.6632 6.82338 15.7293 6.87485C15.2074 6.47294 14.6388 6.13967 14.0311 5.88236C14.1095 5.91422 14.1879 5.94853 14.2663 5.98039C13.6537 5.72552 13.0141 5.55153 12.3573 5.46084C12.4431 5.47309 12.5313 5.48535 12.617 5.49515C11.9382 5.40448 11.252 5.40448 10.5732 5.49515C10.659 5.4829 10.7472 5.47064 10.833 5.46084C10.1762 5.55151 9.53419 5.72551 8.92394 5.98039C9.00236 5.94853 9.08078 5.91422 9.1592 5.88236C8.55389 6.13968 7.9829 6.47298 7.46094 6.87485C7.52711 6.82338 7.59327 6.77192 7.65944 6.72046C7.15217 7.11501 6.69635 7.57085 6.29932 8.08058C6.35078 8.01441 6.40225 7.94824 6.45371 7.88207C6.0518 8.40404 5.71853 8.97261 5.46122 9.58034C5.49308 9.50192 5.52739 9.4235 5.55925 9.34508C5.30438 9.95774 5.13039 10.5973 5.0397 11.2541C5.05196 11.1684 5.06421 11.0801 5.07401 10.9944C5.02745 11.3326 5.0054 11.6756 5.0054 12.0163C5.0054 12.5285 4.5545 13.0211 4.02514 12.9966C3.49579 12.972 3.04243 12.5652 3.04489 12.0163C3.04979 10.2862 3.57667 8.53642 4.58632 7.12467C4.85344 6.75218 5.14015 6.39192 5.45876 6.06354C5.77979 5.7327 6.13021 5.44106 6.49538 5.16171C7.17177 4.64709 7.92411 4.25741 8.72054 3.96578C10.3649 3.36046 12.2347 3.31144 13.9182 3.78933C15.5454 4.25004 17.0575 5.21071 18.1333 6.51934C18.4249 6.87468 18.6994 7.24475 18.9347 7.63685C19.1748 8.0363 19.366 8.45538 19.5424 8.88422C19.8732 9.69047 20.0497 10.5482 20.1183 11.4157C20.2531 13.1483 19.8193 14.9373 18.92 16.4225C18.0475 17.8635 16.7364 19.0692 15.1975 19.7627C14.7711 19.9539 14.3373 20.1254 13.8864 20.2529C13.4257 20.3803 12.9551 20.4563 12.4797 20.5126C11.5926 20.6156 10.6883 20.5543 9.81341 20.3778C8.15923 20.0421 6.60064 19.1623 5.43411 17.9468C4.25534 16.7166 3.42458 15.1212 3.16481 13.433C3.09374 12.9624 3.04227 12.4919 3.04227 12.0165C3.04227 11.5043 3.49317 11.0117 4.02253 11.0363C4.55677 11.0608 5.00278 11.4676 5.00525 12.0165L5.0054 12.0163Z" fill="#4580FF"/>
<path d="M10.6122 4.44849V1.4685C10.6122 0.9563 11.0631 0.463732 11.5925 0.488244C12.1242 0.51275 12.5727 0.919555 12.5727 1.4685V4.44849C12.5727 4.96068 12.1218 5.45325 11.5925 5.42874C11.0607 5.40423 10.6122 4.99743 10.6122 4.44849Z" fill="#4580FF"/>
<path d="M10.6122 22.5662V19.5862C10.6122 19.074 11.0631 18.5815 11.5925 18.606C12.1242 18.6305 12.5727 19.0373 12.5727 19.5862V22.5662C12.5727 23.0784 12.1218 23.571 11.5925 23.5465C11.0607 23.522 10.6122 23.1152 10.6122 22.5662Z" fill="#4580FF"/>
<path d="M19.1605 11.0358H22.1405C22.6526 11.0358 23.1452 11.4867 23.1207 12.016C23.0962 12.5478 22.6894 12.9963 22.1405 12.9963H19.1605C18.6483 12.9963 18.1557 12.5454 18.1802 12.016C18.2047 11.4843 18.6115 11.0358 19.1605 11.0358Z" fill="#4580FF"/>
<path d="M1.04272 11.0358H4.0227C4.5349 11.0358 5.02747 11.4867 5.00295 12.016C4.97845 12.5478 4.57164 12.9963 4.0227 12.9963H1.04272C0.530519 12.9963 0.0379505 12.5454 0.0624619 12.016C0.0869675 11.4843 0.493773 11.0358 1.04272 11.0358Z" fill="#4580FF"/>
<path d="M10.2985 12.0163C10.2985 12.1192 10.3059 12.2197 10.3181 12.3226C10.3059 12.2368 10.2936 12.1486 10.2838 12.0628C10.3108 12.2589 10.3623 12.45 10.4382 12.6338C10.4064 12.5554 10.3721 12.477 10.3402 12.3985C10.4162 12.5774 10.5142 12.7441 10.6294 12.9009C10.5779 12.8348 10.5264 12.7686 10.475 12.7024C10.6 12.8642 10.7421 13.0063 10.9038 13.1313C10.8377 13.0798 10.7715 13.0284 10.7053 12.9769C10.8597 13.0945 11.0288 13.1901 11.2077 13.2661C11.1293 13.2342 11.0509 13.1999 10.9725 13.168C11.1563 13.244 11.3474 13.2955 11.5434 13.3224C11.4577 13.3102 11.3695 13.2979 11.2837 13.2881C11.4871 13.3151 11.6905 13.3151 11.8963 13.2881C11.8106 13.3004 11.7223 13.3126 11.6366 13.3224C11.8326 13.2955 12.0238 13.244 12.2076 13.168C12.1291 13.1999 12.0507 13.2342 11.9723 13.2661C12.1512 13.1901 12.3178 13.0921 12.4747 12.9769C12.4085 13.0284 12.3424 13.0798 12.2762 13.1313C12.4379 13.0063 12.5801 12.8642 12.705 12.7024C12.6536 12.7686 12.6021 12.8348 12.5507 12.9009C12.6683 12.7465 12.7639 12.5774 12.8398 12.3985C12.808 12.477 12.7737 12.5554 12.7418 12.6338C12.8178 12.45 12.8692 12.2589 12.8962 12.0628C12.8839 12.1486 12.8717 12.2368 12.8619 12.3226C12.8888 12.1192 12.8888 11.9158 12.8619 11.7099C12.8741 11.7957 12.8864 11.8839 12.8962 11.9697C12.8692 11.7736 12.8178 11.5825 12.7418 11.3987C12.7737 11.4771 12.808 11.5555 12.8398 11.634C12.7639 11.4551 12.6658 11.2884 12.5507 11.1316C12.6021 11.1977 12.6536 11.2639 12.705 11.3301C12.5801 11.1683 12.4379 11.0262 12.2762 10.9012C12.3424 10.9527 12.4085 11.0041 12.4747 11.0556C12.3203 10.938 12.1512 10.8424 11.9723 10.7664C12.0507 10.7983 12.1291 10.8326 12.2076 10.8645C12.0238 10.7885 11.8326 10.737 11.6366 10.7101C11.7223 10.7223 11.8106 10.7346 11.8963 10.7444C11.6929 10.7174 11.4895 10.7174 11.2837 10.7444C11.3695 10.7321 11.4577 10.7199 11.5434 10.7101C11.3474 10.737 11.1562 10.7885 10.9725 10.8645C11.0509 10.8326 11.1293 10.7983 11.2077 10.7664C11.0288 10.8424 10.8622 10.9404 10.7053 11.0556C10.7715 11.0041 10.8377 10.9527 10.9038 10.9012C10.7421 11.0262 10.6 11.1683 10.475 11.3301C10.5264 11.2639 10.5779 11.1977 10.6294 11.1316C10.5117 11.286 10.4162 11.4551 10.3402 11.634C10.3721 11.5555 10.4064 11.4771 10.4382 11.3987C10.3623 11.5825 10.3108 11.7736 10.2838 11.9697C10.2961 11.8839 10.3083 11.7957 10.3181 11.7099C10.3059 11.8128 10.2985 11.9133 10.2985 12.0163C10.2961 12.2687 10.1907 12.5309 10.0118 12.7098C9.84272 12.8789 9.56334 13.0088 9.31826 12.9965C8.79137 12.972 8.33313 12.5652 8.33801 12.0163C8.34291 11.3816 8.52426 10.7125 8.89919 10.193C9.13935 9.85969 9.38934 9.60482 9.71771 9.35975C9.96768 9.17105 10.252 9.04362 10.5436 8.93579C11.7419 8.49467 13.2491 8.89903 14.0529 9.894C14.3077 10.2077 14.4842 10.5042 14.6337 10.8791C14.7587 11.1879 14.8126 11.5138 14.8371 11.8471C14.8836 12.4745 14.7096 13.1411 14.3886 13.6802C14.0725 14.2095 13.5848 14.6825 13.0211 14.9374C12.6315 15.1138 12.286 15.2094 11.862 15.256C11.5385 15.2927 11.2101 15.2584 10.8916 15.1947C10.2348 15.0673 9.57558 14.6776 9.14915 14.1654C8.86978 13.8297 8.67863 13.5038 8.52179 13.0945C8.39191 12.7563 8.33799 12.3765 8.33554 12.0163C8.33064 11.5041 8.7889 11.0115 9.3158 11.036C9.8525 11.0605 10.2936 11.4673 10.2985 12.0163Z" fill="#4580FF"/>
</svg>
