<svg width="21" height="24" viewBox="0 0 21 24" fill="none" xmlns="http://www.w3.org/2000/svg">
<path d="M20.0386 11.4671C19.6748 12.5124 19.4478 13.6029 19.334 14.6937C19.084 17.0569 18.5614 19.3745 17.6528 21.5557C17.3802 22.2372 17.0846 22.828 16.812 23.2144C16.3801 23.8278 15.4486 23.6007 15.3123 22.828C14.4944 18.1473 12.8358 14.9208 10.9042 14.5344C10.8134 14.5118 10.7453 14.5118 10.6541 14.5344C8.72288 14.9207 7.06419 18.1243 6.24601 22.828C6.1097 23.6007 5.20071 23.8503 4.74627 23.2144C4.47366 22.828 4.17806 22.2373 3.90545 21.5557C2.99649 19.3518 2.49681 17.0343 2.22425 14.6937C2.08794 13.6029 1.8605 12.5124 1.51974 11.4671C0.65634 8.89955 0.542619 6.4456 1.156 4.42326C1.63306 2.83274 2.76904 1.56042 4.24626 1.10598C4.38257 1.06042 4.49628 1.03783 4.61 1.01525C7.40468 0.515197 10.2678 1.24229 12.6536 2.87833C14.6304 4.19619 16.1072 5.69593 16.1528 5.58222C16.4254 4.60511 13.8578 2.08307 12.4491 1.19712C12.7217 1.0834 18.0388 0.1293 19.9475 3.24208C20.7206 4.5144 21.2883 7.80901 20.0386 11.4671Z" fill="#54BA6B"/>
</svg>
